# xmcd
#
# Track frame offsets:
#	150
#	13332
#	23505
#	33117
#	47402
#	55872
#	67454
#	79556
#	101669
#	113108
#	121790
#	133145
#
# Disc length: 2041 seconds
#
# Revision: 2
# Processed by: cddbd v1.4b42PL1 Copyright (c) Steve Scherf et al.
# Submitted via: EZCDDA 4.3.2
#
DISCID=9807f70c
DTITLE=Jack Straw - Home Far Away
DYEAR=1900
DGENRE=
TTITLE0=Little Maggie
TTITLE1=Love Please Come Home
TTITLE2=Mountain Blues
TTITLE3=Alabama Trust
TTITLE4=Salt Creek
TTITLE5=Foggie Mountain Top
TTITLE6=Harlows Lullaby
TTITLE7=Live And Die In Oregon
TTITLE8=Going Up On The Mountain
TTITLE9=Home Far Away
TTITLE10=Cherokee Shuffle
TTITLE11=Blue Moon
EXTD=
EXTT0=
EXTT1=
EXTT2=
EXTT3=
EXTT4=
EXTT5=
EXTT6=
EXTT7=
EXTT8=
EXTT9=
EXTT10=
EXTT11=
PLAYORDER=
